<svg xmlns="http://www.w3.org/2000/svg" viewBox="0 0 85.04 82.77"><defs><style>.cls-1{fill:#424242;}.cls-2{fill:#b4f38c;}</style></defs><title>Asset 4xxxhdpi</title><g id="Layer_2" data-name="Layer 2"><g id="Layer_1-2" data-name="Layer 1"><ellipse class="cls-1" cx="42.52" cy="41.39" rx="42.52" ry="41.39"/><path class="cls-2" d="M24.75,61.25v3.88a1.38,1.38,0,0,1-1.54,1.51H14a1.37,1.37,0,0,1-1.53-1.52V41.6A1.37,1.37,0,0,1,14,40.06h9.1c1.12,0,1.61.5,1.62,1.6s0,1.06,1.11,1.09a53.42,53.42,0,0,1,10.56,1,14.89,14.89,0,0,1,6.34,2.81,1,1,0,0,0,.68.18c3.91,0,7.81,0,11.72,0a4.76,4.76,0,0,1,4.56,2.64c.19.36.33.21.55.09a15.93,15.93,0,0,1,5.25-2,8.83,8.83,0,0,1,4.47.5,4.16,4.16,0,0,1,1.31,6.88,12.24,12.24,0,0,1-2.18,1.67,84.12,84.12,0,0,1-17.8,9.64A25.72,25.72,0,0,1,41.57,68a23.2,23.2,0,0,1-13.41-4.28Zm20.86-7.9h9.72a2,2,0,0,0,2.05-1.28,2,2,0,0,0-2-2.7H42.77A1.6,1.6,0,0,1,41.61,49a10.79,10.79,0,0,0-5-2.42,52.77,52.77,0,0,0-11.56-1.2c-.42,0-.34.23-.34.46q0,5.84,0,11.68a.7.7,0,0,0,.37.66c.84.57,1.66,1.17,2.48,1.76a30,30,0,0,0,5.59,3.57,21.21,21.21,0,0,0,15.28.7c7.51-2.4,14.13-6.4,20.46-10.91a2.75,2.75,0,0,0,.58-.6,1.46,1.46,0,0,0-.53-2.3,5.79,5.79,0,0,0-3.24-.3,18.71,18.71,0,0,0-5.23,2.21,1.67,1.67,0,0,0-.75.82A4.56,4.56,0,0,1,55.35,56H35.9c-1,0-1.6-.5-1.61-1.33s.6-1.33,1.59-1.33ZM22,53.41c0-3.42,0-6.83,0-10.24,0-.36-.09-.46-.47-.46q-3,0-5.91,0c-.37,0-.47.09-.47.45q0,10.19,0,20.38c0,.35.09.45.47.45q2.93,0,5.85,0c.43,0,.53-.1.53-.51C22,60.12,22,56.76,22,53.41Z"/><path class="cls-2" d="M54.05,38.74a11.94,11.94,0,0,1-3.42-.49,1,1,0,0,0-.8.1c-2.14,1.14-4.29,2.26-6.42,3.41a1.47,1.47,0,0,1-1.7,0,1.38,1.38,0,0,1-.48-1.63c.35-1.41.65-2.84,1-4.25a.69.69,0,0,0-.34-.9,10,10,0,0,1-4.6-6.14,9,9,0,0,1,2.25-8.34,16.2,16.2,0,0,1,8.65-5A23,23,0,0,1,64,17a14.12,14.12,0,0,1,4.76,3.62,9,9,0,0,1-.21,12.49,17.29,17.29,0,0,1-9.26,5A23.5,23.5,0,0,1,54.05,38.74Zm-9.56-.59,4.63-2.48a1.81,1.81,0,0,1,1.42-.18,14.47,14.47,0,0,0,2.15.47,18.48,18.48,0,0,0,9.15-1.39,12.59,12.59,0,0,0,4.85-3.38,6.48,6.48,0,0,0,.07-8.76,10.64,10.64,0,0,0-3.59-2.83A20,20,0,0,0,45,19.6a10,10,0,0,0-4.31,3.82A6.61,6.61,0,0,0,42.21,32a14.83,14.83,0,0,0,2.14,1.44,1.32,1.32,0,0,1,.79,1.69C44.93,36.12,44.72,37.07,44.49,38.15Z"/><path class="cls-2" d="M54.05,22.79h8.7c1,0,1.6.51,1.59,1.33s-.6,1.33-1.6,1.33H45.28a1.35,1.35,0,0,1-1.47-1.17,1.29,1.29,0,0,1,1-1.43,2.18,2.18,0,0,1,.62-.06Z"/><path class="cls-2" d="M54.1,28.11h8.81a1.34,1.34,0,0,1,1.42,1.1,1.31,1.31,0,0,1-1,1.49,1.4,1.4,0,0,1-.45.06H45.23a1.33,1.33,0,0,1-1.42-1.16,1.31,1.31,0,0,1,1-1.44,2.52,2.52,0,0,1,.62-.05Z"/></g></g></svg>