<svg xmlns="http://www.w3.org/2000/svg" viewBox="0 0 85.04 82.77"><defs><style>.cls-1{fill:#424242;}.cls-2{fill:#b4f38c;}</style></defs><title>Asset 2xxxhdpi</title><g id="Layer_2" data-name="Layer 2"><g id="Layer_1-2" data-name="Layer 1"><ellipse class="cls-1" cx="42.52" cy="41.39" rx="42.52" ry="41.39"/><path class="cls-2" d="M32.71,48.8c-.32-.6-.63-1.2-1-1.8-1-1.88-2.32-3.63-3.52-5.41A16.66,16.66,0,0,1,38.61,15.37,17.41,17.41,0,0,1,59.47,28.1a15.47,15.47,0,0,1-1.82,12.18c-1.27,2-2.66,4-3.84,6.13-.52.93-1,1.87-1.55,2.82v-.48c0-4.14,0-8.28,0-12.42a2,2,0,0,0-.27-1Q47.83,28.15,43.71,21l-.19-.32a1.13,1.13,0,0,0-2.1,0L38.94,25q-2.89,5-5.8,10a2.67,2.67,0,0,0-.35,1.35V48.79Z"/><path class="cls-2" d="M42.47,60.75h7c.38,0,.52.06.51.46,0,.9,0,1.8,0,2.7a.86.86,0,0,1-.21.59,9.64,9.64,0,0,1-14.6,0A.76.76,0,0,1,35,64c0-1,0-1.89,0-2.84,0-.32.11-.37.4-.37Z"/><path class="cls-2" d="M38.44,45.06c0,2.52,0,5,0,7.56,0,.35-.1.43-.44.42-.93,0-1.85,0-2.78,0-.26,0-.38,0-.38-.34q0-7.61,0-15.21c0-.27.09-.33.35-.33.95,0,1.91,0,2.87,0,.32,0,.38.1.38.39C38.44,40.05,38.44,42.56,38.44,45.06Z"/><path class="cls-2" d="M50,45.06c0,2.48,0,4.95,0,7.43,0,.35-.08.46-.46.45-.89,0-1.79,0-2.68,0-.27,0-.35-.07-.35-.33q0-7.62,0-15.22c0-.25.07-.33.34-.33.92,0,1.85,0,2.78,0,.34,0,.37.12.37.4C50,40,50,42.53,50,45.06Z"/><path class="cls-2" d="M40.73,45c0-2.47,0-4.94,0-7.42,0-.42.13-.5.52-.48.86,0,1.73,0,2.59,0,.32,0,.38.1.38.38q0,7.55,0,15.08c0,.35-.1.43-.44.42-.87,0-1.73,0-2.59,0-.4,0-.46-.13-.45-.46C40.74,50,40.73,47.47,40.73,45Z"/><path class="cls-2" d="M42.49,55.15c2.34,0,4.68,0,7,0,.4,0,.49.1.48.48,0,.78,0,1.56,0,2.33,0,.26,0,.38-.35.38H35.32c-.31,0-.37-.11-.36-.37,0-.81,0-1.62,0-2.43,0-.34.12-.39.43-.39Z"/><path class="cls-2" d="M49.19,34.81H35.75l1.45-2.42c.07-.12.2-.13.32-.16a21.83,21.83,0,0,1,9.88,0,.48.48,0,0,1,.36.19C48.22,33.2,48.7,34,49.19,34.81Z"/><path class="cls-2" d="M38.67,29.86l3.8-6.55,3.8,6.55A23.63,23.63,0,0,0,38.67,29.86Z"/></g></g></svg>