<svg xmlns="http://www.w3.org/2000/svg" viewBox="0 0 85.04 82.77"><defs><style>.cls-1{fill:#424242;}.cls-2{fill:#b4f38c;}</style></defs><title>Asset 7xxxhdpi</title><g id="Layer_2" data-name="Layer 2"><g id="Layer_1-2" data-name="Layer 1"><ellipse class="cls-1" cx="42.52" cy="41.39" rx="42.52" ry="41.39"/><path class="cls-2" d="M62.3,41.4c0,10.62-8.91,19.26-19.81,19.24S22.7,52,22.74,41.35A19.55,19.55,0,0,1,42.57,22.13C53.48,22.18,62.32,30.8,62.3,41.4Zm-35.21,0A15.44,15.44,0,0,0,58,41.4c0-8.24-6.83-14.95-15.39-15A15.24,15.24,0,0,0,27.09,41.36Z"/><path class="cls-2" d="M43.45,17.27c0,.49,0,1,0,1.46,0,.27.07.36.36.37a17.41,17.41,0,0,1,2.69.28c.63.1,1,.53.92,1.05a1,1,0,0,1-1.24.78,22.53,22.53,0,0,0-2.59-.28,21.11,21.11,0,0,0-4.7.28,1,1,0,0,1-1.18-.72.92.92,0,0,1,.84-1.11,14.51,14.51,0,0,1,2.54-.27c.44,0,.52-.15.5-.53,0-.92,0-1.83,0-2.74a.93.93,0,0,1,.93-1,.94.94,0,0,1,.93,1C43.46,16.32,43.45,16.79,43.45,17.27Z"/><path class="cls-2" d="M41.58,65.49c0-.46,0-.92,0-1.37s-.07-.45-.43-.45a15,15,0,0,1-2.59-.28.93.93,0,0,1-.87-1.1,1,1,0,0,1,1.22-.72,21.43,21.43,0,0,0,7.19,0,1,1,0,0,1,1.22.72.93.93,0,0,1-.85,1.1,15.56,15.56,0,0,1-2.64.28c-.31,0-.4.1-.39.39,0,1,0,1.89,0,2.84a.94.94,0,1,1-1.87,0Z"/><path class="cls-2" d="M67.33,42.28c-.5,0-1,0-1.5,0-.34,0-.41.1-.42.41a17.83,17.83,0,0,1-.28,2.52,1,1,0,0,1-1.13.86,1,1,0,0,1-.75-1.18,19.6,19.6,0,0,0,0-7,1,1,0,1,1,1.88-.36,15.93,15.93,0,0,1,.29,2.57c0,.3.09.39.4.38,1,0,2,0,3,0a.91.91,0,1,1,0,1.8Z"/><path class="cls-2" d="M17.75,40.48c.47,0,.94,0,1.4,0s.47-.11.47-.46a14.71,14.71,0,0,1,.28-2.47A1,1,0,0,1,21,36.71a.94.94,0,0,1,.74,1.18,19.78,19.78,0,0,0,0,7,.93.93,0,0,1-.71,1.19,1,1,0,0,1-1.14-.83,14,14,0,0,1-.29-2.57c0-.3-.09-.39-.4-.38-1,0-1.94,0-2.91,0-.69,0-1.12-.37-1.11-.92s.43-.89,1.09-.89Z"/><path class="cls-2" d="M42.53,54.58A13.4,13.4,0,0,1,29,41.38a13.55,13.55,0,0,1,27.1,0A13.4,13.4,0,0,1,42.53,54.58Zm2.31-10.07a2.34,2.34,0,0,1-4.67,0,1,1,0,0,0-1.16-1,1,1,0,0,0-.86,1.26,3.66,3.66,0,0,0,2.66,2.85c.45.13.66.26.63.76s.5.92,1,.92,1.07-.41,1-.88.25-.67.71-.8a3.64,3.64,0,0,0,2.7-3.19,3.37,3.37,0,0,0-2-3.2,5.1,5.1,0,0,0-2.55-.59,2.17,2.17,0,0,1-2.2-1.94,2.35,2.35,0,0,1,4.69-.23,1.05,1.05,0,0,0,1.22.94,1,1,0,0,0,.84-1.21,3.65,3.65,0,0,0-2.59-2.91c-.49-.16-.8-.29-.75-.89s-.51-.91-1-.9-1.05.41-1,.89-.22.74-.74.88a3.53,3.53,0,0,0-2.57,4.05,3.7,3.7,0,0,0,2.19,2.46,6.36,6.36,0,0,0,2.28.47A2.26,2.26,0,0,1,44.84,44.51Z"/></g></g></svg>