<svg xmlns="http://www.w3.org/2000/svg" viewBox="0 0 85.04 82.77"><defs><style>.cls-1{fill:#424242;}.cls-2{fill:#b4f38c;}</style></defs><title>Asset 3xxxhdpi</title><g id="Layer_2" data-name="Layer 2"><g id="Layer_1-2" data-name="Layer 1"><ellipse class="cls-1" cx="42.52" cy="41.39" rx="42.52" ry="41.39"/><path class="cls-2" d="M69.64,41.37c0,14.55-12.17,26.42-27.12,26.42S15.39,55.92,15.39,41.37,27.59,15,42.54,15,69.64,26.84,69.64,41.37ZM42.53,19.14c-12.6,0-22.86,10-22.87,22.24s10.19,22.2,22.82,22.25,22.86-9.92,22.9-22.22S55.16,19.16,42.53,19.14Z"/><path class="cls-2" d="M52.13,25.61c-.75.8-1.5,1.68-2.32,2.48-1.34,1.31-2.72,2.57-4.09,3.85a.56.56,0,0,1-.51.22,22.82,22.82,0,0,0-17.39,5.09,26.87,26.87,0,0,0-4.09,4,16.73,16.73,0,0,1,2.19-8.66,18.69,18.69,0,0,1,6.21-6.57A19.11,19.11,0,0,1,52.13,25.61Z"/><path class="cls-2" d="M52,57.26l-.73-3.55q-.63-3.15-1.27-6.3a.43.43,0,0,1,.16-.51,8,8,0,0,0,3.09-6.81,7.26,7.26,0,0,0-.2-1.8.49.49,0,0,1,.15-.48c1.77-1.85,3.53-3.7,5.27-5.57.28-.3.34-.12.46.1a17.38,17.38,0,0,1,2.31,11.08,18,18,0,0,1-9,13.69Z"/><path class="cls-2" d="M36.65,41.37A5.85,5.85,0,0,1,44.34,36a.64.64,0,0,0,.73-.15q4.27-3.66,8.59-7.31a2.41,2.41,0,0,1,.77-.57.94.94,0,0,1,1.08.32c.38.44,1.06.73.82,1.5a1.42,1.42,0,0,1-.33.48q-3.87,4.3-7.73,8.6a.74.74,0,0,0-.19.82,5.34,5.34,0,0,1-1.53,5.81,5.6,5.6,0,0,1-6,1.25,5.5,5.5,0,0,1-3.84-4.64C36.69,41.85,36.67,41.61,36.65,41.37Zm5.94-2.44A2.46,2.46,0,1,0,45,41.44,2.49,2.49,0,0,0,42.59,38.93Z"/><path class="cls-2" d="M41.59,59.74a18.83,18.83,0,0,1-14.13-7.28c-.22-.28-.35-.29-.6-.06a5.52,5.52,0,0,1-.62.46c-.55.37-1,.2-1.07-.43-.2-1.33-.37-2.66-.55-4-.05-.39-.11-.78-.16-1.17-.07-.61.32-.94.91-.7q2.5,1,5,2c.6.25.65.7.15,1.12a4.51,4.51,0,0,1-.66.49c-.29.17-.28.31-.08.55a15.86,15.86,0,0,0,7.88,5.45,14.84,14.84,0,0,0,4.48.72c.34,0,.42.1.41.41,0,.69,0,1.39,0,2.08,0,.35-.12.42-.43.38A4.36,4.36,0,0,0,41.59,59.74Z"/></g></g></svg>