<svg xmlns="http://www.w3.org/2000/svg" xmlns:xlink="http://www.w3.org/1999/xlink" viewBox="0 0 120.57 65.28"><defs><style>.cls-1{fill:url(#linear-gradient);}.cls-2{fill:url(#linear-gradient-2);}</style><linearGradient id="linear-gradient" x1="49.23" y1="-27.14" x2="49.23" y2="92.68" gradientUnits="userSpaceOnUse"><stop offset="0.23" stop-color="#b4f38c"/><stop offset="0.42" stop-color="#8cb572"/><stop offset="0.63" stop-color="#647758"/><stop offset="0.79" stop-color="#4b5148"/><stop offset="0.87" stop-color="#424242"/></linearGradient><linearGradient id="linear-gradient-2" x1="106.33" y1="-27.14" x2="106.33" y2="92.68" xlink:href="#linear-gradient"/></defs><g id="Livello_2" data-name="Livello 2"><g id="Layer_1" data-name="Layer 1"><path class="cls-1" d="M36.63,30c4.55-7.55,8.57-14.4,12.78-21.14C56.83-3,67.07-2.95,74.32,9.05s14.5,24.1,21.62,36.23c3.7,6.32,3.25,12-.91,16.16-5.53,5.49-14.12,4.66-18.68-2.18-3.9-5.84-7.28-12-10.93-18s-3.66-6-7.15-.18S51.63,52.55,48,58.13c-6.14,9.51-16.89,9.56-22.82,0C17.32,45.3,9.69,32.34,2.11,19.35-1.82,12.62-.11,5.54,5.92,2c6.19-3.61,12.75-1.71,17,5.13C27.4,14.42,31.71,21.8,36.63,30Z"/><path class="cls-2" d="M120.57,14.67a13.88,13.88,0,0,1-14,14.06c-7.86,0-14.66-6.91-14.45-14.59a14.43,14.43,0,0,1,15-13.93C115.09.4,120.66,6.37,120.57,14.67Z"/></g></g></svg>