<svg xmlns="http://www.w3.org/2000/svg" viewBox="0 0 85.04 85.04"><defs><style>.cls-1{fill:#424242;}.cls-2{fill:#b4f38c;}</style></defs><title>Asset 8xxxhdpi</title><g id="Layer_2" data-name="Layer 2"><g id="Layer_1-2" data-name="Layer 1"><circle class="cls-1" cx="42.52" cy="42.52" r="42.52"/><path class="cls-2" d="M42.51,69.79c-3.06,0-6.13-.05-9.2,0a2.47,2.47,0,0,1-2.72-2.71c.06-.93,0-1.87,0-2.81a2.26,2.26,0,0,1,1.94-2.39c.26,0,.3-.17.3-.39,0-.47,0-.94,0-1.4a1.2,1.2,0,0,0-.21-.73c-1.54-2.51-3.06-5-4.62-7.54a1.59,1.59,0,0,1,0-2q6.68-10,13.31-20c.71-1.06,1.58-1.06,2.29,0Q50.34,39.92,57,50a1.51,1.51,0,0,1,0,1.83c-1.5,2.42-3,4.87-4.47,7.29a2,2,0,0,0-.37,1.35,2,2,0,0,1,0,.54c-.08.57.05.88.71,1a2.13,2.13,0,0,1,1.53,2.08c0,1.15,0,2.29,0,3.44A2.3,2.3,0,0,1,52,69.79h-9.5ZM41.35,34.12l-.19.28q-5.4,8.12-10.8,16.23a.48.48,0,0,0,0,.6c1.36,2.21,2.72,4.42,4.05,6.65a.66.66,0,0,0,.65.36q7.44,0,14.88,0a.65.65,0,0,0,.65-.36c1.32-2.2,2.66-4.38,4-6.56a.62.62,0,0,0,0-.8Q49.28,42.57,44,34.6c-.09-.12-.17-.25-.33-.49v.51q0,3.59,0,7.17a.51.51,0,0,0,.4.58,4.48,4.48,0,1,1-3.11,0,.51.51,0,0,0,.4-.58q0-3.59,0-7.17ZM42.5,67.48h0c3.06,0,6.13,0,9.2,0,.29,0,.43,0,.41-.38,0-.86,0-1.71,0-2.57,0-.31-.09-.39-.38-.37-.5,0-1,0-1.5,0q-8.38,0-16.76,0c-.48,0-.59.14-.56.59,0,.76,0,1.52,0,2.27,0,.39.1.48.48.48C36.43,67.47,39.46,67.48,42.5,67.48Zm0-6.92H35.59c-.32,0-.49.06-.44.41a1,1,0,0,1,0,.34c-.08.46.13.55.55.55,4.46,0,8.92,0,13.38,0,.79,0,.77,0,.8-.82,0-.4-.12-.47-.49-.47Zm-2.15-14a2.15,2.15,0,1,0,2.16-2.14A2.15,2.15,0,0,0,40.37,46.54Z"/><path class="cls-2" d="M46.3,17.16c.11.27-.22.74.15,1a3.37,3.37,0,0,0,1,.19,27.06,27.06,0,0,1,15.32,8.5c.27.29.42.37.78.1A3.83,3.83,0,0,1,68.3,27,3.92,3.92,0,1,1,62,30.69a1.46,1.46,0,0,1,0-.58c.2-.63-.18-1-.55-1.43a25,25,0,0,0-14.63-8.15c-.35-.06-.49,0-.46.38.15,1.72-.53,2-1.93,1.92s-2.81,0-4.21,0c-1,0-1.42-.43-1.42-1.41s0-1-1-.79a25,25,0,0,0-14.49,8.49.77.77,0,0,0-.2.65,3.92,3.92,0,1,1-7.81.64,3.75,3.75,0,0,1,2.06-3.76,3.7,3.7,0,0,1,4.26.38c.29.22.37.06.52-.1A27,27,0,0,1,36.5,18.53c.61-.14,1.23-.26,1.85-.34.32,0,.4-.16.38-.46s0-.87,0-1.31a1.08,1.08,0,0,1,1.09-1.17c1.79,0,3.59,0,5.38,0a1.11,1.11,0,0,1,1.1,1.17C46.31,16.64,46.3,16.87,46.3,17.16ZM41.05,19c0,.4,0,.8,0,1.21,0,.18,0,.3.25.3q1.22,0,2.43,0c.18,0,.25-.07.25-.25q0-1.21,0-2.43c0-.21-.07-.27-.28-.27H41.33c-.21,0-.29.06-.28.27C41.06,18.21,41.05,18.6,41.05,19ZM67.44,30.1a1.59,1.59,0,0,0-1.57-1.62,1.63,1.63,0,0,0-1.62,1.59,1.58,1.58,0,0,0,1.58,1.6A1.56,1.56,0,0,0,67.44,30.1ZM19.2,31.67a1.58,1.58,0,0,0,1.58-1.61,1.63,1.63,0,0,0-1.62-1.58,1.59,1.59,0,0,0-1.57,1.62A1.56,1.56,0,0,0,19.2,31.67Z"/></g></g></svg>