<svg xmlns="http://www.w3.org/2000/svg" viewBox="0 0 96.32 96.29"><defs><style>.cls-1{fill:#b4f38c;}</style></defs><g id="Livello_2" data-name="Livello 2"><g id="biglietto_1" data-name="biglietto 1"><path class="cls-1" d="M0,48.14C0,37,.13,25.81,0,14.65A14.51,14.51,0,0,1,12.73.06,12.88,12.88,0,0,1,14.25,0h67.8A14.22,14.22,0,0,1,96.31,14.28q0,33.86,0,67.72A14.24,14.24,0,0,1,82.05,96.28q-33.88,0-67.79,0A14.24,14.24,0,0,1,0,82C0,70.74,0,59.44,0,48.14Zm88.16,0V14.73a6.27,6.27,0,0,0-6.6-6.6H14.93a8.6,8.6,0,0,0-2.15.25c-2.84.72-4.61,3.18-4.62,6.43V81.55a6.27,6.27,0,0,0,6.6,6.6H81.59a8.26,8.26,0,0,0,2-.25,6.25,6.25,0,0,0,4.62-6.36Z"/><path class="cls-1" d="M24.08,48.07a24.11,24.11,0,1,1,24,24.2A24.13,24.13,0,0,1,24.08,48.07Zm40.06.1a16,16,0,1,0-16,15.9A15.89,15.89,0,0,0,64.14,48.17Z"/><path class="cls-1" d="M74.27,16a6.07,6.07,0,1,1-6.12,6A6,6,0,0,1,74.27,16Z"/></g></g></svg>