<svg xmlns="http://www.w3.org/2000/svg" xmlns:xlink="http://www.w3.org/1999/xlink" viewBox="0 0 250.39 65.72"><defs><style>.cls-1{fill:#b4f38c;}.cls-2{fill:url(#linear-gradient);}.cls-3{fill:url(#linear-gradient-2);}</style><linearGradient id="linear-gradient" x1="49.23" y1="-27.14" x2="49.23" y2="92.68" gradientUnits="userSpaceOnUse"><stop offset="0.23" stop-color="#b4f38c"/><stop offset="0.42" stop-color="#8cb572"/><stop offset="0.63" stop-color="#647758"/><stop offset="0.79" stop-color="#4b5148"/><stop offset="0.87" stop-color="#424242"/></linearGradient><linearGradient id="linear-gradient-2" x1="106.33" y1="-27.14" x2="106.33" y2="92.68" xlink:href="#linear-gradient"/></defs><title>Asset 19xxxhdpi</title><g id="Layer_2" data-name="Layer 2"><g id="Layer_1-2" data-name="Layer 1"><path class="cls-1" d="M130.1,63.4a9,9,0,0,0,5.24-1.57,9.24,9.24,0,0,0,3.34-4.22h2.55a12.08,12.08,0,0,1-1.7,3.24A11.59,11.59,0,0,1,137,63.4a12.42,12.42,0,0,1-3.23,1.69,10.75,10.75,0,0,1-3.66.63,11.45,11.45,0,0,1-4.56-.9,11.37,11.37,0,0,1-6.12-6.12,11.85,11.85,0,0,1,0-9.11,11.24,11.24,0,0,1,6.12-6.14,11.77,11.77,0,0,1,12.79,2.45,11.8,11.8,0,0,1,2.46,3.69,11.57,11.57,0,0,1,.9,4.54v1.16H120.83a10.06,10.06,0,0,0,1.09,3.25A9.14,9.14,0,0,0,124,61.09a10.26,10.26,0,0,0,2.81,1.69A8.9,8.9,0,0,0,130.1,63.4Zm0-18.54a8.71,8.71,0,0,0-3.31.63A10,10,0,0,0,124,47.18a9,9,0,0,0-2.06,2.57A10.39,10.39,0,0,0,120.83,53h18.54a10.14,10.14,0,0,0-1.09-3.22,9,9,0,0,0-2.06-2.57,9.85,9.85,0,0,0-2.83-1.69A8.79,8.79,0,0,0,130.1,44.86Z"/><path class="cls-1" d="M156.06,42.54a11.38,11.38,0,0,1,10.68,7.05,11.85,11.85,0,0,1,0,9.11,11.73,11.73,0,0,1-15.25,6.12,11.73,11.73,0,0,1-3.66-2.46,11.59,11.59,0,0,1-2.45-3.66,11.37,11.37,0,0,1-.91-4.57V38.37h2.32v8.81a11.72,11.72,0,0,1,4-3.36A11.24,11.24,0,0,1,156.06,42.54Zm0,20.86a8.74,8.74,0,0,0,3.59-.74,9.59,9.59,0,0,0,2.95-2,9.77,9.77,0,0,0,2-3,9.08,9.08,0,0,0,0-7.18,9.42,9.42,0,0,0-4.94-4.94,9.08,9.08,0,0,0-7.18,0,9.62,9.62,0,0,0-2.95,2,9.42,9.42,0,0,0-2,2.94,9.08,9.08,0,0,0,0,7.18,9.33,9.33,0,0,0,4.94,4.94A8.71,8.71,0,0,0,156.06,63.4Z"/><path class="cls-1" d="M170.43,40.69V38.37h2.32v2.32Zm0,25V42.54h2.32V65.72Z"/><path class="cls-1" d="M187.12,63.4a8.74,8.74,0,0,0,3.1-.53,9.74,9.74,0,0,0,2.62-1.46,9.5,9.5,0,0,0,2-2.2,9.36,9.36,0,0,0,1.27-2.76h2.32A11.21,11.21,0,0,1,197,60.14a12.86,12.86,0,0,1-2.55,2.94,11.58,11.58,0,1,1-3.36-19.84,11,11,0,0,1,3.36,1.95A12.45,12.45,0,0,1,197,48.13a11.25,11.25,0,0,1,1.48,3.68h-2.32a9.42,9.42,0,0,0-1.27-2.75,9.55,9.55,0,0,0-2-2.21,10,10,0,0,0-2.62-1.46,9.22,9.22,0,0,0-6.7.21,9.45,9.45,0,0,0-4.93,4.94,9,9,0,0,0,0,7.18,9.59,9.59,0,0,0,2,3,9.42,9.42,0,0,0,2.94,2A8.79,8.79,0,0,0,187.12,63.4Z"/><path class="cls-1" d="M212.84,42.54a11.1,11.1,0,0,1,4.45.91A12.32,12.32,0,0,1,221,45.9a11.63,11.63,0,0,1,2.52,3.69,11.62,11.62,0,0,1,0,9.11A11.61,11.61,0,0,1,221,62.36a12.35,12.35,0,0,1-3.69,2.46,11.1,11.1,0,0,1-4.45.9,11.54,11.54,0,0,1-4.57-.9,11.73,11.73,0,0,1-3.66-2.46,11.59,11.59,0,0,1-2.45-3.66,11.85,11.85,0,0,1,0-9.11,11.48,11.48,0,0,1,10.68-7.05Zm0,20.86a8.74,8.74,0,0,0,3.59-.74,9.33,9.33,0,0,0,4.94-4.94,9.08,9.08,0,0,0,0-7.18,9.42,9.42,0,0,0-2-2.94,9.62,9.62,0,0,0-2.95-2,9.08,9.08,0,0,0-7.18,0,9.42,9.42,0,0,0-4.94,4.94,9.08,9.08,0,0,0,0,7.18,9.77,9.77,0,0,0,2,3,9.59,9.59,0,0,0,2.95,2A8.74,8.74,0,0,0,212.84,63.4Z"/><path class="cls-1" d="M238.8,42.54a10.82,10.82,0,0,1,4.45.93,12.26,12.26,0,0,1,6.21,6.21,10.82,10.82,0,0,1,.93,4.45V65.72h-2.32V54.13a8.94,8.94,0,0,0-.74-3.59,9.51,9.51,0,0,0-4.94-4.94,9.08,9.08,0,0,0-7.18,0,9.62,9.62,0,0,0-3,2,9.42,9.42,0,0,0-2,2.94,8.78,8.78,0,0,0-.74,3.59V65.72h-2.32V54.13a11.13,11.13,0,0,1,.9-4.45A12.18,12.18,0,0,1,230.57,46a11.59,11.59,0,0,1,3.66-2.53A11.22,11.22,0,0,1,238.8,42.54Z"/><path class="cls-2" d="M36.63,30c4.55-7.55,8.57-14.4,12.78-21.14C56.83-3,67.07-2.95,74.32,9.05s14.5,24.1,21.62,36.23c3.7,6.32,3.25,12-.91,16.16-5.53,5.49-14.12,4.66-18.68-2.18-3.9-5.84-7.28-12-10.93-18s-3.66-6-7.15-.18S51.63,52.55,48,58.13c-6.14,9.51-16.89,9.56-22.82,0C17.32,45.3,9.69,32.34,2.11,19.35-1.82,12.62-.11,5.54,5.92,2c6.19-3.61,12.75-1.71,17,5.13C27.4,14.42,31.71,21.8,36.63,30Z"/><path class="cls-3" d="M120.57,14.67a13.88,13.88,0,0,1-14,14.06c-7.86,0-14.66-6.91-14.45-14.59a14.43,14.43,0,0,1,15-13.93C115.09.4,120.66,6.37,120.57,14.67Z"/></g></g></svg>