<svg xmlns="http://www.w3.org/2000/svg" viewBox="0 0 12.82 17.26"><defs><style>.cls-1{fill:#b4f38c;}</style></defs><title>Asset 10xxxhdpi</title><g id="Layer_2" data-name="Layer 2"><g id="Layer_1-2" data-name="Layer 1"><path class="cls-1" d="M6.41,0a6.36,6.36,0,0,1,5.75,3.59,5.8,5.8,0,0,1,.64,2.35,6.5,6.5,0,0,1-1.18,4.22c-.52.76-1,1.55-1.52,2.32C9.33,13.67,8.55,14.85,7.78,16c-.17.26-.34.53-.52.78a1,1,0,0,1-1.68,0c-.45-.65-.87-1.32-1.3-2q-1.35-2.05-2.69-4.11C1.31,10.29,1,9.89.76,9.43A6.31,6.31,0,0,1,0,7,6.23,6.23,0,0,1,1.41,2.4a6.29,6.29,0,0,1,4-2.32A6.22,6.22,0,0,1,6.41,0Zm3.5,6.2a3.51,3.51,0,1,0-3.5,3.5A3.49,3.49,0,0,0,9.91,6.2Z"/></g></g></svg>