<svg xmlns="http://www.w3.org/2000/svg" viewBox="0 0 15.3 11.13"><defs><style>.cls-1{fill:#b4f38c;}</style></defs><title>Asset 13xxxhdpi</title><g id="Layer_2" data-name="Layer 2"><g id="Layer_1-2" data-name="Layer 1"><path class="cls-1" d="M7.65,0h6.53c.05,0,.12,0,.14,0s-.05.07-.08.1L9.16,4.89,7.77,6.19c-.09.09-.15.09-.24,0L1.48.53,1,.1S1,.07,1,0,1,0,1.06,0H7.65Z"/><path class="cls-1" d="M7.64,11.12H1.23a.48.48,0,0,1-.12,0s-.08,0-.1,0,0-.07.06-.1L6,6.5c.08-.08.14-.09.23,0l1,1a.55.55,0,0,0,.84,0l1-1a.14.14,0,0,1,.22,0L12.81,9.7,14.2,11s.11.06.09.11-.09,0-.14,0Z"/><path class="cls-1" d="M0,5.57V1a.34.34,0,0,1,0-.1C0,.86,0,.8,0,.78S.12.82.15.85Q1.86,2.44,3.56,4L5.14,5.5c.1.09.1.14,0,.23L1.32,9.23.15,10.3s-.07.09-.11.07,0-.09,0-.13V5.57Z"/><path class="cls-1" d="M15.29,5.59V8.84c0,.47,0,.95,0,1.42,0,0,0,.09,0,.1s-.07,0-.1,0L11.74,7.17,10.17,5.74c-.1-.09-.11-.14,0-.24l4.08-3.81.89-.82s.07-.12.14-.09,0,.11,0,.17c0,1.55,0,3.09,0,4.64Z"/></g></g></svg>