<svg xmlns="http://www.w3.org/2000/svg" viewBox="0 0 85.04 82.77"><defs><style>.cls-1{fill:#424242;}.cls-2{fill:#b4f38c;}</style></defs><title>Asset 1xxxhdpi</title><g id="Layer_2" data-name="Layer 2"><g id="Layer_1-2" data-name="Layer 1"><ellipse class="cls-1" cx="42.52" cy="41.39" rx="42.52" ry="41.39"/><path class="cls-2" d="M42.46,68c-.79,0-1.59,0-2.39,0-.61,0-.83-.19-.88-.79-.18-2.09-.37-4.17-.54-6.26,0-.3-.11-.4-.42-.47a21.47,21.47,0,0,1-6.51-2.68.46.46,0,0,0-.64.06l-4.78,4c-.54.45-.81.45-1.31,0L21.61,58.5c-.5-.48-.5-.75,0-1.28l4.12-4.71a.41.41,0,0,0,0-.62,18.08,18.08,0,0,1-2.67-6.26.54.54,0,0,0-.58-.5l-6.19-.48c-.67,0-.9-.27-.9-.94V39.06c0-.67.23-.88.9-.93,2-.16,4.06-.34,6.1-.48a.63.63,0,0,0,.69-.6,18.07,18.07,0,0,1,2.65-6.17.41.41,0,0,0,0-.62c-1.37-1.55-2.73-3.12-4.09-4.68-.5-.57-.49-.82,0-1.34L25,21c.45-.44.75-.45,1.24,0q2.41,2,4.82,4a.43.43,0,0,0,.63,0,18.63,18.63,0,0,1,6.55-2.68c.29-.06.37-.16.39-.45.17-2.1.36-4.2.54-6.3.05-.56.27-.76.87-.76h4.87c.6,0,.83.23.88.81.16,2,.34,4.05.49,6.08a.62.62,0,0,0,.57.67A21.15,21.15,0,0,1,53.29,25a.43.43,0,0,0,.6-.06l4.9-4c.57-.46.81-.45,1.34.07l3.35,3.26c.49.48.51.75.05,1.27-1.37,1.57-2.74,3.15-4.12,4.71a.43.43,0,0,0,0,.63A18.06,18.06,0,0,1,62,37.14a.55.55,0,0,0,.59.5c2.06.15,4.12.33,6.19.49.65,0,.84.23.84.86v4.7c0,.69-.22.9-.92,1l-6.19.49c-.33,0-.49.12-.56.46a18.39,18.39,0,0,1-2.66,6.27.45.45,0,0,0,0,.66c1.36,1.55,2.71,3.13,4,4.7.45.52.44.81,0,1.28L60.09,61.7c-.64.62-.82.62-1.52,0-1.56-1.3-3.13-2.6-4.67-3.91a.44.44,0,0,0-.64,0,18.32,18.32,0,0,1-6.46,2.65c-.35.08-.46.21-.48.54-.17,2-.35,4.08-.51,6.12-.05.66-.26.87-1,.87Zm0-39.08A12.53,12.53,0,1,0,55.3,41.36,12.63,12.63,0,0,0,42.45,28.89Z"/><path class="cls-2" d="M42.42,51.35a10.36,10.36,0,0,1-8.48-4.52.53.53,0,0,1-.06-.64,5.29,5.29,0,0,1,2.67-2.6c.51-.22,1-.45,1.51-.69a.41.41,0,0,1,.5.06,5.84,5.84,0,0,0,7.6,0,.4.4,0,0,1,.46,0c.57.27,1.15.52,1.72.8a5.15,5.15,0,0,1,2.54,2.72.67.67,0,0,1-.09.73A10.27,10.27,0,0,1,42.42,51.35Z"/><path class="cls-2" d="M46.87,37.62a5.14,5.14,0,0,1-1.6,3.66,4.1,4.1,0,0,1-5.85,0,5.59,5.59,0,0,1,0-7.82,4.16,4.16,0,0,1,6.3.46A5.53,5.53,0,0,1,46.87,37.62Z"/></g></g></svg>