<svg xmlns="http://www.w3.org/2000/svg" viewBox="0 0 85.04 82.77"><defs><style>.cls-1{fill:#424242;}.cls-2{fill:#b4f38c;}</style></defs><title>Asset 9xxxhdpi</title><g id="Layer_2" data-name="Layer 2"><g id="Layer_1-2" data-name="Layer 1"><ellipse class="cls-1" cx="42.52" cy="41.39" rx="42.52" ry="41.39"/><path class="cls-2" d="M28.58,41.39V17.82a2.57,2.57,0,0,1,.77-2,2.43,2.43,0,0,1,1.74-.7H54a2.48,2.48,0,0,1,2.49,2.39,2.25,2.25,0,0,1,0,.26q0,23.64,0,47.28a2.48,2.48,0,0,1-2.08,2.62,3.33,3.33,0,0,1-.63,0H31.28a2.5,2.5,0,0,1-2.7-2.63Zm14-15.2H34.79c-1.35,0-2,.62-2,1.92V39.9a1.72,1.72,0,0,0,2,1.9H50.26a1.73,1.73,0,0,0,2-1.91V28.11a1.7,1.7,0,0,0-1.95-1.92Zm0,19.31h-9a.81.81,0,0,0-.14,1.61,3.2,3.2,0,0,0,.54,0H51a3.34,3.34,0,0,0,.45,0,.82.82,0,0,0,.69-.49c.27-.59-.16-1.14-.9-1.14Zm-.1,4.92h8.6a2.67,2.67,0,0,0,.4,0,.8.8,0,0,0,.13-1.59,2.41,2.41,0,0,0-.54,0H34a1.61,1.61,0,0,0-.58,0,.81.81,0,0,0,.13,1.58,3.34,3.34,0,0,0,.45,0Zm-4.19,1.65H33.79c-.6,0-1,.31-1,.8s.38.85,1,.85h9c.62,0,1-.33,1-.83s-.37-.82-1-.82Z"/><path class="cls-2" d="M26.82,53.82c-.16-.55-.33-1.09-.49-1.65Q22.25,38,18.18,23.77a2.43,2.43,0,0,1,1.94-3.25l6.34-1.63c.34-.09.5-.05.45.33s.18,1-.1,1.23-.77.24-1.18.34L20.51,22.1c-.74.19-1,.55-.74,1.26l7,24.18a1.54,1.54,0,0,1,.11.46v5.81Z"/><path class="cls-2" d="M58.13,53.81c0-1.94-.09-3.88,0-5.81A14.1,14.1,0,0,1,59,45.09l6.31-21.73c.21-.71,0-1.07-.74-1.26-2-.5-4-1-5.95-1.5-.32-.08-.49-.2-.45-.55a5.13,5.13,0,0,0,0-1c0-.28.09-.29.31-.23,2.26.58,4.52,1.14,6.77,1.75a2.38,2.38,0,0,1,1.67,3.08c-.74,2.57-1.47,5.14-2.21,7.7q-3.2,11.09-6.38,22.17C58.26,53.65,58.3,53.78,58.13,53.81Z"/><path class="cls-2" d="M34.5,36.7V34.57c0-2.12,0-4.24,0-6.35,0-.34.09-.41.42-.41H50.13c.24,0,.42,0,.41.32q0,4.52,0,9a.22.22,0,0,1,0,.1c-.14,0-.21-.14-.3-.23L47.58,34.5a.88.88,0,0,0-1.34-.07c-.41.31-.83.63-1.22,1-.21.18-.33.18-.51,0-.93-1.11-1.88-2.2-2.83-3.3-.58-.68-1-.71-1.65-.13L35,36.32Zm12.24-4.76a.85.85,0,0,0-1.69,0,.84.84,0,0,0,.86.83A.86.86,0,0,0,46.74,31.94Z"/><path class="cls-2" d="M42.52,40.16H34.91c-.33,0-.4-.07-.43-.39a1.56,1.56,0,0,1,.66-1.45c1.78-1.47,3.52-3,5.27-4.52.25-.23.38-.24.61,0,.94,1.13,1.9,2.23,2.85,3.33a.89.89,0,0,0,1.43.13c.43-.34.87-.68,1.29-1,.17-.14.27-.16.44,0,1.11,1.09,2.22,2.17,3.35,3.24a.54.54,0,0,1,.14.56c-.06.18-.26.08-.39.08Z"/></g></g></svg>