<svg xmlns="http://www.w3.org/2000/svg" viewBox="0 0 85.04 82.77"><defs><style>.cls-1{fill:#424242;}.cls-2{fill:#b4f38c;}</style></defs><title>Asset 5xxxhdpi</title><g id="Layer_2" data-name="Layer 2"><g id="Layer_1-2" data-name="Layer 1"><ellipse class="cls-1" cx="42.52" cy="41.39" rx="42.52" ry="41.39"/><path class="cls-2" d="M21.21,41.85l10,6.49c.52.34,1.06.67,1.6,1a3.1,3.1,0,0,1,1,4.34,3.26,3.26,0,0,1-4.5.94L14.1,44.72a3.08,3.08,0,0,1-1.18-4.16,3.19,3.19,0,0,1,.94-1.06l14.82-11a3.28,3.28,0,0,1,4.65.55,3.07,3.07,0,0,1-.75,4.43l-11,8.08Z"/><path class="cls-2" d="M63.77,40.8,52.66,33.58a2.92,2.92,0,0,1-1.4-3.06,3,3,0,0,1,2.07-2.47,3.09,3.09,0,0,1,2.82.29q7.45,4.82,14.9,9.64A3,3,0,0,1,71.23,43Q63.72,48.7,56.14,54.27a3.24,3.24,0,0,1-4.49-.64,3.06,3.06,0,0,1,.66-4.37q5.5-4.08,11-8.14Z"/><path class="cls-2" d="M38.36,54.89A1.37,1.37,0,0,1,37.08,53c.62-1.91,1.26-3.82,1.89-5.73q3-9,5.93-17.93a3,3,0,0,0,.13-.52,1.5,1.5,0,0,1,1.9-1.12,1.47,1.47,0,0,1,1,1.9c-2.74,8-5.32,16-8,24.06A1.53,1.53,0,0,1,38.36,54.89Z"/></g></g></svg>