<svg xmlns="http://www.w3.org/2000/svg" viewBox="0 0 12.78 16.87"><defs><style>.cls-1{fill:#b4f38c;}</style></defs><title>Asset 12xxxhdpi</title><g id="Layer_2" data-name="Layer 2"><g id="Layer_1-2" data-name="Layer 1"><path class="cls-1" d="M0,3.71a4.94,4.94,0,0,1,.1-1A2.74,2.74,0,0,1,1.32,1,7.18,7.18,0,0,1,3.15,0a.42.42,0,0,1,.36.05.88.88,0,0,1,.43.46c.49,1.1,1,2.2,1.45,3.31a.56.56,0,0,1-.32.84L4,5.21a.27.27,0,0,0-.18.25A3.44,3.44,0,0,0,4,7a10.13,10.13,0,0,0,2.87,4.58A3.53,3.53,0,0,0,8,12.27a.32.32,0,0,0,.36-.06c.31-.25.63-.49,1-.73a.57.57,0,0,1,.9.09l2.37,2.78a.72.72,0,0,1,.19.63.48.48,0,0,1-.14.25l-.63.62a.81.81,0,0,1-.14.12c-.31.19-.62.37-.94.54a2.79,2.79,0,0,1-2.53.12,7.59,7.59,0,0,1-2.07-1.27A18.21,18.21,0,0,1,2.65,11a20.42,20.42,0,0,1-2-4.2A10.26,10.26,0,0,1,0,3.71Z"/></g></g></svg>