<svg xmlns="http://www.w3.org/2000/svg" viewBox="0 0 85.04 82.77"><defs><style>.cls-1{fill:#424242;}.cls-2{fill:#b4f38c;}</style></defs><title>Asset 6xxxhdpi</title><g id="Layer_2" data-name="Layer 2"><g id="Layer_1-2" data-name="Layer 1"><ellipse class="cls-1" cx="42.52" cy="41.39" rx="42.52" ry="41.39"/><path class="cls-2" d="M48.7,23.94c-1,1.12-2,2.21-3,3.32-.18.21-.39.17-.6.17H20.88c-.62,0-.62,0-.62.6q0,11.49,0,23c0,.42.09.54.54.54q21.66,0,43.34,0c.48,0,.56-.14.56-.57,0-7.32,0-14.65,0-22a.83.83,0,0,1,.32-.71c1.09-.88,2.16-1.79,3.28-2.71a1.75,1.75,0,0,1,.14.77V57.12A2.27,2.27,0,0,1,66,59.46H55.09c-2.52,0-5,0-7.56,0-.33,0-.42.08-.42.41,0,1.12,0,2.23,0,3.35,0,.32.1.38.4.38,1.2,0,2.4,0,3.59,0a1.18,1.18,0,0,1,1.35,1.32c0,.62,0,1.24,0,1.86A1.13,1.13,0,0,1,51.22,68H33.76a1.14,1.14,0,0,1-1.23-1.2q0-1,0-2a1.16,1.16,0,0,1,1.26-1.22c1.21,0,2.42,0,3.63,0,.4,0,.47-.11.46-.46,0-1.07,0-2.14,0-3.21,0-.41-.12-.47-.5-.47-6,0-12.09,0-18.13,0a2.32,2.32,0,0,1-2.62-2.56V26.31A2.27,2.27,0,0,1,18.27,24a2.69,2.69,0,0,1,.8-.09q14.64,0,29.28,0A.43.43,0,0,1,48.7,23.94ZM42.43,57.05a1.57,1.57,0,1,0,0-3.13,1.6,1.6,0,0,0-1.63,1.54A1.57,1.57,0,0,0,42.43,57.05Z"/><path class="cls-2" d="M51.6,35.19a8.86,8.86,0,0,0-1.8-2.58,7.53,7.53,0,0,0-2.39-1.67c-.26-.11-.35-.17-.12-.43q5.06-5.69,10.08-11.39c.84-.95,1.66-1.93,2.54-2.84A4.5,4.5,0,0,1,64.49,15a4.27,4.27,0,0,1,3.27,3.19,4.27,4.27,0,0,1-1.48,4.61Q59.7,28.39,53.1,33.93Z"/><path class="cls-2" d="M38.73,45.49a15.47,15.47,0,0,1-3.32-.35.87.87,0,0,1-.73-.7.82.82,0,0,1,.32-.91,8.46,8.46,0,0,0,3.17-5.05,12.21,12.21,0,0,1,.72-2.11,5.21,5.21,0,0,1,5.4-3,5.31,5.31,0,0,1,4.49,4.12,5,5,0,0,1-1.53,4.8,11.62,11.62,0,0,1-6.85,3.08c-.32,0-.63.06-.95.08Z"/></g></g></svg>