<svg xmlns="http://www.w3.org/2000/svg" viewBox="0 0 17.04 17.05"><defs><style>.cls-1{fill:#b4f38c;}</style></defs><title>Asset 11xxxhdpi</title><g id="Layer_2" data-name="Layer 2"><g id="Layer_1-2" data-name="Layer 1"><path class="cls-1" d="M8.67,0a8.34,8.34,0,0,1,7.52,4.67A7.66,7.66,0,0,1,17,7.57a8.31,8.31,0,0,1-6.78,8.91A8.28,8.28,0,0,1,4.8,15.7a.46.46,0,0,0-.38,0L.17,17c-.05,0-.11.05-.15,0s0-.11,0-.16L1.42,12.8a.41.41,0,0,0,0-.37A8.16,8.16,0,0,1,.32,9.1,8.34,8.34,0,0,1,7,.17,8.25,8.25,0,0,1,8.67,0Zm7,8.24a5,5,0,0,0-.08-1,6.83,6.83,0,0,0-2.18-4A6.9,6.9,0,0,0,7.47,1.47,6.79,6.79,0,0,0,3.35,3.79,6.8,6.8,0,0,0,1.68,8.91,6.6,6.6,0,0,0,2.9,12.27a.28.28,0,0,1,0,.29c-.25.73-.5,1.47-.74,2.2,0,.05-.08.12,0,.17s.12,0,.18,0l2.3-.73a.28.28,0,0,1,.28,0,7,7,0,0,0,10.73-6Z"/><path class="cls-1" d="M10.4,12.74a1.88,1.88,0,0,1-1.15-.32,8.44,8.44,0,0,1-2.36-2A9.54,9.54,0,0,1,5.53,7.89a7.58,7.58,0,0,1-.36-1.32A2.43,2.43,0,0,1,6.37,4a.8.8,0,0,1,.72-.07L7.33,4a.4.4,0,0,1,.37.4c.08.53.13,1.07.22,1.59a.64.64,0,0,1-.29.68A4.52,4.52,0,0,1,7.12,7,.3.3,0,0,0,7,7.37,5.49,5.49,0,0,0,8.7,10.14l.34.28a.32.32,0,0,0,.44,0l.76-.54c.2-.15.31-.17.51,0,.42.32.79.68,1.19,1L12,11c.29.26.3.3.16.66A1.7,1.7,0,0,1,10.4,12.74Z"/></g></g></svg>